<?xml version="1.0" encoding="utf-8"?>
<!-- Generator: Adobe Illustrator 18.1.0, SVG Export Plug-In . SVG Version: 6.00 Build 0)  -->
<!DOCTYPE svg PUBLIC "-//W3C//DTD SVG 1.1//EN" "http://www.w3.org/Graphics/SVG/1.1/DTD/svg11.dtd">
<svg version="1.1" id="Layer_1" xmlns="http://www.w3.org/2000/svg" xmlns:xlink="http://www.w3.org/1999/xlink" x="0px" y="0px"
	 viewBox="0 0 500 500" enable-background="new 0 0 500 500" xml:space="preserve">
<g>
	<path d="M0,0v500h500V0H0z M487,487H13V13h474V487z"/>
	<polygon fill="#FFFFFF" points="487,120.5 487,487 13,487 13,392.1 	"/>
</g>
<g>
	<line fill="none" x1="4.5" y1="389.5" x2="493.5" y2="109.2"/>
	<polygon points="496.8,114.9 493.5,116.7 487,120.5 13,392.1 7.7,395.1 6.5,393 4.5,389.5 1.2,383.8 6.5,380.8 13,377.1 487,105.5 
		490.3,103.6 493.5,109.2 493.5,109.2 	"/>
</g>
<g>
	<line fill="#FFFFFF" x1="486.7" y1="494.3" x2="326" y2="301"/>
	<polygon points="482.1,498.2 326,301 491.3,490.5 	"/>
</g>
<g>
	<line fill="#FFFFFF" x1="491.7" y1="356.3" x2="343.7" y2="293"/>
	<polygon points="489.3,361.8 343.7,293 494,350.8 	"/>
</g>
<g>
	<line fill="#FFFFFF" x1="491.7" y1="260.2" x2="359" y2="259.1"/>
	<polygon points="491.6,266.2 359,259.1 491.7,254.2 	"/>
</g>
<g>
	<line fill="#FFFFFF" x1="493" y1="144.4" x2="362.7" y2="235.6"/>
	<polygon points="496.4,149.4 362.7,235.6 489.6,139.5 	"/>
</g>
<g>
	<line fill="#FFFFFF" x1="487" y1="458.3" x2="347.7" y2="313.7"/>
	<polygon points="482.7,462.5 347.7,313.7 491.3,454.2 	"/>
</g>
<g>
	<line fill="#FFFFFF" x1="487" y1="409" x2="374.3" y2="319.7"/>
	<polygon points="483.3,413.7 374.3,319.7 490.7,404.3 	"/>
</g>
<g>
	<line fill="#FFFFFF" x1="493.3" y1="301.3" x2="374" y2="282.7"/>
	<polygon points="492.4,307.3 374,282.7 494.3,295.4 	"/>
</g>
<g>
	<line fill="#FFFFFF" x1="358.3" y1="494.3" x2="305.5" y2="336.2"/>
	<polygon points="352.6,496.2 305.5,336.2 364,492.4 	"/>
</g>
<g>
	<line fill="#FFFFFF" x1="204.3" y1="494.3" x2="253" y2="355"/>
	<polygon points="198.7,492.4 253,355 210,496.3 	"/>
</g>
<g>
	<line fill="#FFFFFF" x1="241.7" y1="491.7" x2="276.5" y2="339.2"/>
	<polygon points="235.8,490.3 276.5,339.2 247.5,493 	"/>
</g>
<g>
	<line fill="#FFFFFF" x1="99" y1="493" x2="222.3" y2="356.3"/>
	<polygon points="94.5,489 222.3,356.3 103.5,497 	"/>
</g>
<g>
	<line fill="#FFFFFF" x1="61.7" y1="493" x2="184" y2="386"/>
	<polygon points="57.7,488.5 184,386 65.6,497.5 	"/>
</g>
<g>
	<line fill="#FFFFFF" x1="4" y1="446.3" x2="170.7" y2="355"/>
	<polygon points="1.1,441.1 170.7,355 6.9,451.6 	"/>
</g>
</svg>
