<?xml version="1.0" encoding="utf-8"?>
<!-- Generator: Adobe Illustrator 18.1.0, SVG Export Plug-In . SVG Version: 6.00 Build 0)  -->
<!DOCTYPE svg PUBLIC "-//W3C//DTD SVG 1.1//EN" "http://www.w3.org/Graphics/SVG/1.1/DTD/svg11.dtd">
<svg version="1.1" id="Layer_1" xmlns="http://www.w3.org/2000/svg" xmlns:xlink="http://www.w3.org/1999/xlink" x="0px" y="0px"
	 viewBox="0 0 154 67.8" enable-background="new 0 0 154 67.8" xml:space="preserve">
<g>
	<path fill="#FFFFFF" d="M96.7,65.4c5.8-3.8,8.6-8.9,8.8-9.2c0.2-0.5,0.2-1,0-1.5c-0.3-0.5-0.8-0.7-1.3-0.7H13c-6,0-11-4.9-11-10.6
		V11.5C2,5.8,7.1,1,13,1h129.7c5.7,0,10.2,4.6,10.2,10.5v31.9c0,6-4.5,10.6-10.2,10.6h-26.4c-0.6,0-1.1,0.4-1.4,0.9
		C112,61.9,103.4,64.5,96.7,65.4z"/>
	<path d="M142.8,3c4.9,0,8.2,3.5,8.2,8.5v31.9c0,5.1-3.3,9.6-8.2,9.6h-26.4c-1.2,0-2.3,0.5-2.8,1.6c-1.9,4.4-6.4,6.8-11.1,8.2
		c2.9-2.9,4.3-5.6,4.4-5.8c0.5-0.9,0.5-1.8-0.1-2.7c-0.5-0.9-1.5-1.2-2.6-1.2H13C8,53,3,48.2,3,43.4V11.5C3,6.6,7.9,3,13,3h130
		 M142.8,0H13C6.4,0,0,4.8,0,11.5v31.9C0,50,6.4,56,13,56h91.2c0,0-5.1,9.2-16,11.7c0,0,0.5,0.1,1.3,0.1c4.8,0,22.1-0.8,26.8-11.8
		h26.4c6.7,0,11.2-6,11.2-12.6V11.5C154,4.8,149.4,0,142.8,0L142.8,0z"/>
</g>
</svg>
