<?xml version="1.0" encoding="utf-8"?>
<!-- Generator: Adobe Illustrator 18.1.0, SVG Export Plug-In . SVG Version: 6.00 Build 0)  -->
<!DOCTYPE svg PUBLIC "-//W3C//DTD SVG 1.1//EN" "http://www.w3.org/Graphics/SVG/1.1/DTD/svg11.dtd">
<svg version="1.1" id="Layer_1" xmlns="http://www.w3.org/2000/svg" xmlns:xlink="http://www.w3.org/1999/xlink" x="0px" y="0px"
	 viewBox="0 0 153.8 190" enable-background="new 0 0 153.8 190" xml:space="preserve">
<g>
	<path fill="#FFFFFF" d="M28,188c-13.4,0-26-12.6-26-25.9V22.8C2,12.1,11.7,1,28,1h82.7C124,1,133,9.8,133,22.8v72
		c0,0.2,0.1,0.5,0.2,0.7l17.6,35.1l-15.6-8.6c-0.2-0.1-0.5-0.2-0.7-0.2c-0.3,0-0.5,0.1-0.8,0.2c-0.5,0.3-0.7,0.8-0.7,1.3v38.7
		c0,12.5-8.5,25.9-22.3,25.9H28z"/>
	<path d="M110.7,3c12.6,0,20.3,7.5,20.3,19.8v72c0,0.5,0.4,0.9,0.6,1.3l15.6,30.8l-11.3-6.2c-0.5-0.2-0.9-0.4-1.4-0.4
		c-0.5,0-1.3,0.1-1.8,0.4c-0.9,0.5-1.7,1.5-1.7,2.6v38.7c0,11.7-7.4,24.9-20.3,24.9H28c-12.4,0-25-12.6-25-24.9V22.8
		C3,10.1,15.9,3,28,3h83 M110.7,0H28C13.9,0,0,8.7,0,22.8v139.3C0,176.2,13.9,190,28,190h82.7c14.1,0,23.3-13.8,23.3-27.9v-38.7
		l19.8,10.9L134,94.9v-72C134,8.7,124.8,0,110.7,0L110.7,0z"/>
</g>
</svg>
